<?xml version="1.0" standalone="no"?>
<!DOCTYPE svg PUBLIC "-//W3C//DTD SVG 20010904//EN"
 "http://www.w3.org/TR/2001/REC-SVG-20010904/DTD/svg10.dtd">
<svg version="1.0" xmlns="http://www.w3.org/2000/svg"
 width="700.000000pt" height="700.000000pt" viewBox="0 0 700.000000 700.000000"
 preserveAspectRatio="xMidYMid meet">
<metadata>
Created by potrace 1.11, written by Peter Selinger 2001-2013
</metadata>
<g transform="translate(0.000000,700.000000) scale(0.100000,-0.100000)"
fill="#000000" stroke="none">
<path d="M4570 6235 c0 -3 12 -63 26 -133 33 -160 32 -155 33 -166 1 -6 412
-3 439 3 3 1 -8 89 -13 111 -3 8 -7 33 -10 55 -3 22 -7 49 -9 60 -3 11 -5 27
-5 36 -1 9 -7 16 -13 16 -91 3 -337 15 -385 19 -35 2 -63 2 -63 -1z"/>
<path d="M3495 5980 c-93 -49 -171 -92 -172 -97 -3 -7 53 -78 213 -268 l34
-40 52 29 c58 32 291 167 297 172 3 3 -111 134 -229 264 l-25 28 -170 -88z"/>
<path d="M4977 5905 c-1 -1 -47 -5 -102 -9 -129 -8 -188 -16 -320 -42 -87 -17
-310 -78 -359 -99 -212 -88 -273 -116 -351 -158 -108 -59 -300 -187 -393 -260
-44 -35 -77 -54 -97 -55 -139 -7 -179 -22 -180 -67 0 -28 -2 -29 -80 -41 -101
-14 -158 -30 -196 -53 l-30 -19 33 -23 33 -24 -75 -18 c-41 -10 -82 -19 -90
-21 -8 -3 -28 -9 -43 -15 -25 -10 -37 -5 -143 66 l-116 77 -56 -60 c-110 -116
-242 -266 -242 -274 0 -3 16 -14 35 -25 l36 -20 -68 -29 c-160 -68 -600 -311
-699 -386 -29 -21 -76 -67 -105 -100 -30 -34 -66 -68 -81 -76 -38 -20 -102
-17 -178 7 -78 24 -122 29 -175 17 -51 -12 -122 -66 -162 -126 l-32 -47 -2
-175 c-2 -174 -11 -235 -43 -297 -23 -45 -27 -70 -11 -83 13 -11 12 -11 126
38 63 28 115 88 135 159 9 32 27 72 40 89 41 55 46 102 21 194 -14 53 -14 97
2 112 4 4 22 3 41 -3 19 -6 77 -12 129 -14 70 -2 95 -7 97 -17 1 -7 5 -31 8
-53 17 -104 21 -149 21 -265 0 -119 -2 -128 -31 -191 -43 -89 -128 -155 -229
-175 -11 -2 -44 -8 -73 -14 -29 -5 -62 -16 -74 -24 -12 -9 -54 -89 -98 -188
-111 -250 -128 -286 -172 -357 -42 -69 -73 -153 -65 -174 3 -7 22 -19 43 -25
22 -7 47 -19 57 -26 18 -14 18 -17 -1 -84 -23 -81 -21 -135 8 -200 24 -53 66
-112 81 -112 6 0 25 -11 43 -25 29 -22 35 -23 52 -11 15 11 19 27 19 72 0 32
5 59 11 61 6 2 19 -22 30 -52 36 -108 57 -98 110 51 57 155 50 217 -37 351
-39 59 -40 63 -29 105 51 193 122 304 210 328 25 6 95 27 156 46 61 19 114 34
118 34 3 0 -2 -17 -11 -37 -27 -65 -32 -76 -53 -141 -11 -35 -27 -109 -36
-165 -8 -56 -19 -115 -24 -131 -19 -56 -12 -79 37 -129 l47 -47 -13 -78 c-34
-200 -24 -234 84 -305 42 -28 154 -50 177 -36 10 6 10 15 -1 44 -7 20 -11 38
-8 41 6 6 57 -46 57 -59 0 -5 -11 -60 -25 -121 -35 -159 -78 -410 -91 -531 -4
-33 -8 -63 -10 -67 -2 -3 -7 -44 -9 -90 -3 -45 -8 -94 -11 -108 -9 -39 -13
-529 -6 -585 l7 -50 1423 -1 c782 0 1422 2 1422 5 0 3 -22 62 -49 131 -116
298 -231 680 -305 1010 -30 134 -60 296 -81 440 -7 44 -8 56 -19 135 -5 38
-12 105 -23 205 -6 65 -11 616 -5 674 l4 48 44 -6 c24 -3 76 -21 116 -39 40
-19 94 -42 120 -51 98 -36 222 -150 233 -216 8 -46 19 -70 54 -117 l25 -33 23
22 c13 12 25 20 27 17 2 -2 13 -37 25 -77 27 -90 72 -140 157 -172 62 -23 139
-29 157 -11 7 7 -3 31 -33 76 -23 36 -40 68 -37 71 3 4 29 -8 57 -25 29 -18
65 -35 82 -38 28 -6 30 -4 23 18 -35 118 -186 309 -364 459 -29 25 -82 71
-116 103 -54 49 -62 61 -57 82 4 14 12 25 17 25 6 1 42 -15 80 -34 39 -19 86
-41 105 -49 58 -24 99 -66 136 -139 37 -74 63 -102 94 -104 11 -1 26 -2 34 -3
8 0 20 -18 27 -38 31 -95 93 -168 176 -208 51 -24 135 -40 147 -28 3 4 -5 25
-18 47 -13 23 -27 51 -30 64 l-7 22 37 -25 c49 -33 66 -33 58 3 -17 74 -89
197 -161 272 -13 14 -44 53 -68 88 -30 42 -59 69 -88 83 -40 20 -96 80 -186
196 -39 50 -129 106 -187 117 -31 6 -155 56 -182 74 -27 18 -72 91 -72 118 0
10 4 26 10 34 7 12 12 11 29 -5 23 -20 21 -21 98 53 48 45 104 66 173 65 76
-1 76 -2 240 -42 155 -38 200 -45 271 -45 82 1 225 51 263 93 18 20 18 21 -10
32 -16 6 -55 16 -86 22 -31 6 -59 16 -62 23 -2 6 20 37 50 67 l55 55 67 -30
c134 -62 224 -31 322 108 41 59 60 118 42 136 -5 5 -41 10 -79 10 -68 0 -72 2
-140 52 -39 29 -113 74 -164 100 -52 27 -121 68 -154 91 -66 47 -196 172 -265
255 -25 30 -62 72 -82 94 -29 31 -35 43 -26 53 11 14 192 123 203 123 4 0 19
8 33 18 81 55 332 142 509 175 70 13 301 15 381 3 180 -28 421 -141 545 -255
l43 -40 64 97 63 96 -64 59 c-86 79 -302 240 -423 315 -293 183 -656 325 -936
367 -19 3 -48 7 -64 10 -16 2 -73 7 -125 11 -53 3 -111 7 -129 8 -18 1 -33 2
-35 1z m170 -1802 c2 -6 -9 -26 -25 -44 l-30 -33 -55 17 c-65 21 -86 40 -67
62 10 12 31 15 93 13 50 -2 82 -7 84 -15z m-3138 -1015 c-28 -68 -150 -408
-154 -428 -2 -8 -17 -55 -32 -105 -16 -49 -47 -157 -68 -238 l-39 -148 -37 73
c-31 63 -37 86 -42 163 -3 50 -15 122 -26 160 -26 90 -22 196 9 291 33 97 105
169 210 209 41 15 100 38 130 51 30 12 58 23 62 23 4 1 -2 -23 -13 -51z"/>
<path d="M6055 5805 l0 -96 145 -78 145 -78 23 31 c49 65 56 54 -123 186 -91
66 -171 123 -178 126 -10 3 -13 -18 -12 -91z"/>
<path d="M5992 5000 c-1 -57 2 -80 11 -81 6 0 20 -2 30 -4 10 -2 48 -6 85 -9
37 -4 88 -9 115 -12 l47 -5 1 38 c1 37 -1 86 -4 90 -2 1 -275 63 -281 63 -1 0
-3 -36 -4 -80z"/>
<path d="M5359 5016 c-2 -3 -16 -7 -29 -10 -14 -2 -52 -12 -85 -21 -33 -9 -67
-18 -75 -20 -8 -1 -34 -8 -57 -14 l-42 -12 34 -62 c20 -34 50 -90 67 -125 20
-37 38 -60 45 -58 7 3 54 38 104 77 81 64 90 75 86 98 -20 96 -39 156 -48 147z"/>
<path d="M4049 2693 c-1 -50 -2 -76 -13 -231 l-6 -93 37 -15 c21 -9 56 -24 78
-34 98 -44 325 -140 330 -140 3 0 3 46 -1 103 -9 152 -12 189 -13 219 -1 23
-14 33 -103 81 -186 99 -298 157 -303 157 -3 0 -5 -21 -6 -47z"/>
<path d="M979 1935 c-1 -3 -2 -8 -3 -12 -4 -18 -19 -132 -31 -243 -4 -36 -9
-72 -10 -80 -2 -8 -6 -42 -10 -75 -3 -33 -8 -75 -11 -92 -4 -30 -1 -33 24 -34
15 0 34 -2 42 -3 13 -3 66 -10 170 -22 19 -2 91 -11 159 -19 68 -9 125 -15
126 -13 3 3 10 46 40 223 3 17 8 41 10 55 3 14 8 37 10 53 3 15 9 53 15 85 5
31 13 76 16 100 l6 42 -39 1 c-21 1 -51 2 -68 4 -16 1 -73 5 -125 9 -116 9
-165 13 -252 21 -38 3 -69 3 -69 0z"/>
<path d="M4191 1412 c-5 -2 -1 -33 10 -70 11 -37 33 -119 50 -182 17 -63 35
-119 39 -124 5 -5 31 -10 57 -11 26 -2 102 -6 168 -10 66 -3 161 -8 210 -11
50 -3 95 -7 102 -9 7 -2 15 0 18 5 4 7 -177 395 -191 410 -5 5 -448 7 -463 2z"/>
</g>
</svg>
